<svg xmlns="http://www.w3.org/2000/svg" width="164" height="77" viewBox="0 0 164 77">
  <g fill="none" fill-rule="evenodd">
    <path fill="#6652CC" fill-rule="nonzero" d="M21.6195416,16.5853323 L15.835834,16.5853323 C15.4730184,14.1917914 13.8723613,12.4972491 11.31131,12.4972491 C8.23804843,12.4972491 6.31725993,15.0814261 6.31725993,19.4660541 C6.31725993,23.9354093 8.23804843,26.4772227 11.3326521,26.4772227 C13.8296772,26.4772227 15.4516763,24.9944982 15.835834,22.5162302 L21.6408837,22.5162302 C21.3207523,27.8752201 17.2870964,31.3278499 11.2686258,31.3278499 C4.37512935,31.3278499 0,26.8796765 0,19.4660541 C0,12.1795224 4.37512935,7.64662192 11.2259416,7.64662192 C17.415149,7.64662192 21.3420944,11.4381602 21.6195416,16.5853323 Z M35.1504294,31.3278499 C28.2355909,31.3278499 23.8177773,26.9220401 23.8177773,19.4660541 C23.8177773,12.1159771 28.2996171,7.64662192 35.1504294,7.64662192 C42.0012417,7.64662192 46.4830815,12.0947953 46.4830815,19.4660541 C46.4830815,26.9432218 42.065268,31.3278499 35.1504294,31.3278499 Z M35.1504294,26.6043134 C38.2023489,26.6043134 40.1444795,24.0413182 40.1444795,19.4872359 C40.1444795,14.9755172 38.1810068,12.3701585 35.1504294,12.3701585 C32.119852,12.3701585 30.1350373,14.9755172 30.1350373,19.4872359 C30.1350373,24.0413182 32.0771678,26.6043134 35.1504294,26.6043134 Z M58.1785493,31.2007592 C52.458868,31.2007592 48.852054,26.7102223 48.852054,19.4448724 C48.852054,12.2430678 52.4802101,7.77371259 58.2212334,7.77371259 C61.5292581,7.77371259 64.0903094,9.5106184 65.2000983,12.03125 L65.3281509,12.03125 L65.3281509,0.275363116 L71.5600424,0.275363116 L71.5600424,30.840669 L65.4135192,30.840669 L65.4135192,26.9432218 L65.3068088,26.9432218 C64.1970199,29.4426717 61.5506002,31.2007592 58.1785493,31.2007592 Z M60.2914166,12.7302487 C57.1541287,12.7302487 55.2333402,15.3356074 55.2333402,19.4872359 C55.2333402,23.6600462 57.1541287,26.2230414 60.2914166,26.2230414 C63.3860203,26.2230414 65.3708351,23.6388644 65.3708351,19.4872359 C65.3708351,15.3567892 63.3860203,12.7302487 60.2914166,12.7302487 Z M85.9872982,12.221886 C83.2555101,12.221886 81.2920375,14.2765185 81.0786165,17.1148768 L90.7892695,17.1148768 C90.6612169,14.2129732 88.7617705,12.221886 85.9872982,12.221886 Z M90.8746378,23.8930458 L96.5943191,23.8930458 C95.9113721,28.3412192 91.81369,31.3278499 86.158035,31.3278499 C79.1151438,31.3278499 74.8894091,26.8584947 74.8894091,19.5931448 C74.8894091,12.3489767 79.157828,7.64662192 85.9232719,7.64662192 C92.5820054,7.64662192 96.786398,12.1159771 96.786398,19.0212368 L96.786398,20.9064151 L81.0145902,20.9064151 L81.0145902,21.2876871 C81.0145902,24.5284991 83.0847734,26.7525858 86.2647454,26.7525858 C88.5483495,26.7525858 90.2984013,25.6299516 90.8746378,23.8930458 Z M101.652395,30.840669 L101.652395,12.793794 L98.5364497,12.793794 L98.5364497,8.23971171 L101.652395,8.23971171 L101.652395,6.52398768 C101.652395,2.07581426 103.765263,0 109.186155,0 C110.338628,0 111.640496,0.127090669 112.366127,0.275363116 L112.366127,4.3634463 C111.917943,4.27871919 111.299022,4.23635563 110.680101,4.23635563 C108.63126,4.23635563 107.734892,5.12599032 107.734892,6.73580546 L107.734892,8.23971171 L112.280758,8.23971171 L112.280758,12.793794 L107.884287,12.793794 L107.884287,30.840669 L101.652395,30.840669 Z M126.046409,31.3278499 C119.131571,31.3278499 114.713757,26.9220401 114.713757,19.4660541 C114.713757,12.1159771 119.195597,7.64662192 126.046409,7.64662192 C132.897222,7.64662192 137.379061,12.0947953 137.379061,19.4660541 C137.379061,26.9432218 132.961248,31.3278499 126.046409,31.3278499 Z M126.046409,26.6043134 C129.098329,26.6043134 131.040459,24.0413182 131.040459,19.4872359 C131.040459,14.9755172 129.076987,12.3701585 126.046409,12.3701585 C123.015832,12.3701585 121.031017,14.9755172 121.031017,19.4872359 C121.031017,24.0413182 122.973148,26.6043134 126.046409,26.6043134 Z M140.580376,30.840669 L140.580376,8.13380282 L146.598846,8.13380282 L146.598846,12.221886 L146.726899,12.221886 C147.537898,9.34116417 149.480029,7.77371259 152.169133,7.77371259 C152.894764,7.77371259 153.513685,7.87962148 153.940527,8.00671215 L153.940527,13.4504291 C153.428316,13.2386114 152.574633,13.0903389 151.678265,13.0903389 C148.605003,13.0903389 146.812267,14.9543354 146.812267,18.1527839 L146.812267,30.840669 L140.580376,30.840669 Z M160.535234,31.0948504 C158.614445,31.0948504 157.099157,29.5697623 157.099157,27.6845841 C157.099157,25.778224 158.614445,24.2743178 160.535234,24.2743178 C162.43468,24.2743178 163.971311,25.778224 163.971311,27.6845841 C163.971311,29.5697623 162.43468,31.0948504 160.535234,31.0948504 Z"/>
    <path fill="#FFF" fill-rule="nonzero" d="M9.32649524,68.0739987 C3.60681395,68.0739987 0,63.5834617 0,56.3181118 C0,49.1163072 3.62815604,44.646952 9.36917943,44.646952 C12.6772041,44.646952 15.2382554,46.3838578 16.3480443,48.9044894 L16.4760969,48.9044894 L16.4760969,37.1486026 L22.7079884,37.1486026 L22.7079884,67.7139085 L16.5614652,67.7139085 L16.5614652,63.8164613 L16.4547548,63.8164613 C15.3449659,66.3159111 12.6985462,68.0739987 9.32649524,68.0739987 Z M11.4393626,49.6034881 C8.30207471,49.6034881 6.38128622,52.2088468 6.38128622,56.3604754 C6.38128622,60.5332857 8.30207471,63.0962808 11.4393626,63.0962808 C14.5339663,63.0962808 16.518781,60.5121039 16.518781,56.3604754 C16.518781,52.2300286 14.5339663,49.6034881 11.4393626,49.6034881 Z M37.1352442,49.0951254 C34.4034561,49.0951254 32.4399834,51.1497579 32.2265625,53.9881162 L41.9372154,53.9881162 C41.8091629,51.0862126 39.9097165,49.0951254 37.1352442,49.0951254 Z M42.0225838,60.7662852 L47.7422651,60.7662852 C47.0593181,65.2144586 42.961636,68.2010893 37.305981,68.2010893 C30.2630898,68.2010893 26.0373551,63.7317342 26.0373551,56.4663842 C26.0373551,49.2222161 30.305774,44.5198614 37.0712179,44.5198614 C43.7299514,44.5198614 47.934344,48.9892165 47.934344,55.8944762 L47.934344,57.7796545 L32.1625362,57.7796545 L32.1625362,58.1609265 C32.1625362,61.4017386 34.2327194,63.6258253 37.4126914,63.6258253 C39.6962955,63.6258253 41.4463473,62.503191 42.0225838,60.7662852 Z M50.7515004,51.6793024 C50.7515004,47.3582196 54.507709,44.5198614 60.3341008,44.5198614 C66.2031767,44.5198614 69.8313328,47.5064921 69.9593853,51.9546655 L64.218362,51.9546655 C64.0262831,50.1118508 62.639047,48.8621259 60.3341008,48.8621259 C58.1785493,48.8621259 56.7486289,49.8364877 56.7486289,51.3403939 C56.7486289,52.5053917 57.6023127,53.2891175 59.9072589,53.7762984 L63.8128622,54.6023878 C68.5934913,55.5979313 70.556964,57.4619278 70.556964,60.787467 C70.556964,65.2568222 66.4379398,68.2010893 60.5475217,68.2010893 C54.2302618,68.2010893 50.5807637,65.278004 50.1752639,60.8086488 L56.2577608,60.8086488 C56.6419185,62.7997359 58.0718388,63.8588248 60.5475217,63.8588248 C62.8951521,63.8588248 64.3464145,62.9056448 64.3464145,61.4229203 C64.3464145,60.215559 63.556757,59.5377421 61.3158371,59.0293794 L57.4102339,58.2244718 C52.9924203,57.2924736 50.7515004,55.0895687 50.7515004,51.6793024 Z M73.7369361,67.7139085 L73.7369361,45.0070423 L79.9688276,45.0070423 L79.9688276,67.7139085 L73.7369361,67.7139085 Z M76.8315397,41.9356844 C75.0174617,41.9356844 73.5875414,40.4953235 73.5875414,38.7584177 C73.5875414,37.0003301 75.0174617,35.581151 76.8315397,35.581151 C78.6456178,35.581151 80.0755381,37.0003301 80.0755381,38.7584177 C80.0755381,40.4953235 78.6456178,41.9356844 76.8315397,41.9356844 Z M94.6735306,62.884463 C97.7894764,62.884463 99.7742912,60.4273768 99.7742912,56.3181118 C99.7742912,52.2300286 97.7894764,49.6034881 94.6735306,49.6034881 C91.600269,49.6034881 89.6581385,52.1876651 89.6581385,56.3181118 C89.6581385,60.4697403 91.5789269,62.884463 94.6735306,62.884463 Z M94.5668202,76.2713468 C88.5483495,76.2713468 84.4720095,73.3694432 83.9811413,69.3237236 L90.0849803,69.3237236 C90.5758485,70.8911752 92.3685844,71.9714459 94.7375569,71.9714459 C97.9602132,71.9714459 99.7529491,70.1921765 99.7529491,67.565636 L99.7529491,63.5834617 L99.6248965,63.5834617 C98.5577918,65.9981844 95.8686879,67.6503631 92.5606633,67.6503631 C86.9690346,67.6503631 83.2768522,63.3716439 83.2768522,56.2757482 C83.2768522,49.0739437 86.8623241,44.646952 92.6673738,44.646952 C95.9540563,44.646952 98.5364497,46.3626761 99.731607,48.9680348 L99.8383175,48.9680348 L99.8383175,45.0070423 L105.984841,45.0070423 L105.984841,67.3961818 C105.984841,72.818717 101.417632,76.2713468 94.5668202,76.2713468 Z M110.039839,67.7139085 L110.039839,45.0070423 L116.058309,45.0070423 L116.058309,49.0527619 L116.186362,49.0527619 C117.402861,46.2355854 119.814518,44.5834067 123.335963,44.5834067 C128.415382,44.5834067 131.275222,47.7606734 131.275222,53.0772997 L131.275222,67.7139085 L125.043331,67.7139085 L125.043331,54.3693882 C125.043331,51.4039393 123.634753,49.709397 120.838938,49.709397 C118.043124,49.709397 116.27173,51.7428477 116.27173,54.6871149 L116.27173,67.7139085 L110.039839,67.7139085 Z"/>
  </g>
</svg>
